<svg id="svg" version="1.1" width="400" height="400" xmlns="http://www.w3.org/2000/svg" xmlns:xlink="http://www.w3.org/1999/xlink" style="display: block;background:#eeeeee;"><g id="svgg"><path id="path0" d="" stroke="none" fill="#252525" fill-rule="evenodd"></path><path id="path1" d="M56.989 106.400 C 56.989 121.470,57.039 127.635,57.100 120.100 C 57.161 112.565,57.161 100.235,57.100 92.700 C 57.039 85.165,56.989 91.330,56.989 106.400 M342.189 106.200 C 342.189 121.160,342.239 127.222,342.300 119.671 C 342.361 112.120,342.361 99.880,342.300 92.471 C 342.239 85.062,342.189 91.240,342.189 106.200 M128.467 172.700 C 167.555 172.756,231.635 172.756,270.867 172.700 C 310.100 172.644,278.120 172.598,199.800 172.598 C 121.480 172.598,89.380 172.644,128.467 172.700 M56.989 200.000 C 56.989 214.850,57.039 220.925,57.100 213.500 C 57.161 206.075,57.161 193.925,57.100 186.500 C 57.039 179.075,56.989 185.150,56.989 200.000 M342.189 200.000 C 342.189 214.850,342.239 220.925,342.300 213.500 C 342.361 206.075,342.361 193.925,342.300 186.500 C 342.239 179.075,342.189 185.150,342.189 200.000 M128.467 227.500 C 167.555 227.556,231.635 227.556,270.867 227.500 C 310.100 227.444,278.120 227.398,199.800 227.398 C 121.480 227.398,89.380 227.444,128.467 227.500 M56.989 293.600 C 56.989 308.670,57.039 314.835,57.100 307.300 C 57.161 299.765,57.161 287.435,57.100 279.900 C 57.039 272.365,56.989 278.530,56.989 293.600 M342.189 293.800 C 342.189 308.760,342.239 314.822,342.300 307.271 C 342.361 299.720,342.361 287.480,342.300 280.071 C 342.239 272.662,342.189 278.840,342.189 293.800 " stroke="none" fill="#282828" fill-rule="evenodd"></path><path id="path2" d="" stroke="none" fill="#2c2727" fill-rule="evenodd"></path><path id="path3" d="" stroke="none" fill="#2c2626" fill-rule="evenodd"></path><path id="path4" d="M57.400 78.706 C 57.140 78.897,57.000 88.629,57.000 106.498 L 57.000 133.997 199.506 133.898 L 342.011 133.800 342.011 106.200 L 342.011 78.600 199.906 78.506 C 121.748 78.454,57.620 78.544,57.400 78.706 M57.197 172.700 C 57.196 172.755,57.193 185.041,57.191 200.001 L 57.189 227.202 199.694 227.301 L 342.200 227.400 342.200 200.000 L 342.200 172.600 199.700 172.600 C 121.325 172.600,57.199 172.645,57.197 172.700 M57.000 293.619 C 57.000 320.904,57.010 321.237,57.800 321.427 C 58.240 321.532,122.368 321.569,200.306 321.509 L 342.011 321.400 342.011 293.800 L 342.011 266.200 199.506 266.102 L 57.000 266.003 57.000 293.619 " stroke="none" fill="#444444" fill-rule="evenodd"></path></g></svg>